<svg id="Layer_1" data-name="Layer 1" xmlns="http://www.w3.org/2000/svg" viewBox="0 0 549.01 570.48"><defs><style>.cls-1{fill:#22a9b6;}.cls-1,.cls-2,.cls-3{fill-opacity:0.9;}.cls-1,.cls-2,.cls-3,.cls-4{fill-rule:evenodd;}.cls-2{fill:#66c3d0;}.cls-2,.cls-3{stroke:#fefefe;stroke-miterlimit:10;stroke-opacity:0.9;stroke-width:1.5px;}.cls-3,.cls-4{fill:#98d2da;}</style></defs><path class="cls-1" d="M288.72,474.57c55-31.4,161.43-278.95,1.76-462.17C148.26,161.59,218.93,393.44,288.72,474.57Z" transform="translate(-15.92 -12.4)"/><path class="cls-2" d="M311.68,487.51c99.11-51.24,224.45-143.68,177.41-397.3C367.83,191.45,303.36,320.45,311.68,487.51Z" transform="translate(-15.92 -12.4)"/><path class="cls-2" d="M89.28,90.21C225.45,183.9,280.44,367.56,269.2,487.51,109.59,425.51,55.65,288.8,89.28,90.21Z" transform="translate(-15.92 -12.4)"/><path class="cls-3" d="M16.82,277.6C37.65,431.71,129.68,473.34,233,492.51,201.74,397.55,141.34,319.25,16.82,277.6Z" transform="translate(-15.92 -12.4)"/><path class="cls-3" d="M349.1,491.24C468.78,474.74,542.18,412.39,564,277.6,439.32,318.65,373.94,393.48,349.1,491.24Z" transform="translate(-15.92 -12.4)"/><path class="cls-4" d="M290.44,534.53c73.4,0,132.93,10.83,132.93,24.17s-59.53,24.18-132.93,24.18-133-10.83-133-24.18S217,534.53,290.44,534.53Z" transform="translate(-15.92 -12.4)"/></svg>