<svg id="Layer_1" data-name="Layer 1" xmlns="http://www.w3.org/2000/svg" viewBox="0 0 841.9 595.3"><defs><style>.cls-1{fill:#22a9b6;}.cls-1,.cls-2,.cls-3{fill-opacity:0.9;}.cls-1,.cls-2,.cls-3,.cls-4,.cls-5,.cls-7{fill-rule:evenodd;}.cls-2,.cls-5{fill:#66c3d0;}.cls-2,.cls-3{stroke:#fefefe;stroke-opacity:0.9;stroke-width:1.5px;}.cls-2,.cls-3,.cls-7{stroke-miterlimit:10;}.cls-3,.cls-4{fill:#98d2da;}.cls-6,.cls-7{fill:#727271;}.cls-7{stroke:#2b2a29;stroke-width:0.5px;}</style></defs><g id="_701631968" data-name=" 701631968"><path class="cls-1" d="M419.4,253.7c29.3-16.7,86.1-148.7.9-246.4C344.5,86.8,382.1,210.4,419.4,253.7Z"/><path class="cls-2" d="M431.6,260.6c52.8-27.3,119.7-76.6,94.6-211.8-64.7,53.9-99,122.7-94.6,211.8Z"/><path class="cls-2" d="M313,48.8c72.6,50,101.9,147.9,95.9,211.8C323.9,227.5,295.1,154.6,313,48.8Z"/><path class="cls-3" d="M274.4,148.7c11.1,82.2,60.2,104.4,115.2,114.6C373,212.6,340.8,170.9,274.4,148.7Z"/><path class="cls-3" d="M451.6,262.6c63.8-8.8,102.9-42,114.6-113.9-66.6,21.9-101.4,61.8-114.6,113.9Z"/><path class="cls-4" d="M420.3,285.6c39.1,0,70.9,5.8,70.9,12.9s-31.7,12.9-70.9,12.9-70.9-5.8-70.9-12.9S381.1,285.6,420.3,285.6Z"/><path class="cls-5" d="M25.7,468.3H12.2V362H25.7v45.2H44.1L110.3,362h22.8L57.7,413.1l80.5,55.3H115L44.2,418.8H25.7Zm-9.9,79.5H10.4V504.1H40.8c6.9,0,11.5.7,13.8,2.2s3.3,4.2,3.3,8.2v5.7q0,6-3.3,8.1c-2.2,1.5-6.8,2.2-13.8,2.2h-25v17.3Zm0-22.2H42.3c3.9,0,6.5-.5,7.8-1.4s1.9-2.9,1.9-5.9v-2.1c0-3-.6-5-1.9-5.9s-3.9-1.4-7.8-1.4H15.8v16.7Zm55.7,22.2H66.1V504.1h5.4v18.8h39.6V504.1h5.4v43.7h-5.4V527.7H71.5Zm64.8-14.3h29.5l-14.9-25.1-14.6,25.1Zm-14.4,14.3,25.4-43.7h7.2l25.4,43.7h-5.8l-5.7-9.6H133.6l-5.6,9.6Zm96.3-39H190.6v16.8h27.6q5.85,0,7.8-1.5c1.3-1,1.9-2.9,1.9-5.9v-2.1c0-2.9-.6-4.9-1.9-5.9s-3.9-1.4-7.8-1.4Zm-27.6,39h-5.4V504.1h31.2c7,0,11.6.7,13.8,2.2s3.4,4.2,3.4,8.2v5.3c0,2.7-.6,4.7-1.7,5.9s-3.1,2.2-6,2.8a8.09,8.09,0,0,1,5.4,2.5,9,9,0,0,1,1.8,6v10.8h-5.4V538c0-2.9-.6-4.8-1.9-5.8s-4.1-1.6-8.7-1.6H190.6v17.2Zm57.9,0h-5.3V504.1H251l26.3,38,26.3-38h8.1v43.7h-5.3V509.3l-26.9,38.5h-4.1l-26.9-38.5v38.5Zm82.9-14.3h29.5L346,508.4ZM317,547.8l25.4-43.7h7.2L375,547.8h-5.8l-5.7-9.6H328.7l-5.6,9.6Zm81.4.5a46,46,0,0,1-9.8-.7,11.52,11.52,0,0,1-5.1-2.4,11.33,11.33,0,0,1-3.2-4.9,25.43,25.43,0,0,1-1-8.1V520.3a29.68,29.68,0,0,1,1-8.7,10.65,10.65,0,0,1,3.2-5.1,12.11,12.11,0,0,1,5.1-2.4,46.15,46.15,0,0,1,9.7-.7h13.8q10.65,0,14.4,2.7c2.5,1.8,3.8,5,3.8,9.7v2.3h-5v-.6c0-3.4-.8-5.8-2.2-7.1s-4.1-2-7.9-2H396.3a18.88,18.88,0,0,0-6,.7,7.06,7.06,0,0,0-3.4,2.4,6.86,6.86,0,0,0-1.2,2.9,33,33,0,0,0-.4,5.6v11.6a25,25,0,0,0,.4,5.6,6.86,6.86,0,0,0,1.2,2.9,6.62,6.62,0,0,0,3.4,2.4,18.88,18.88,0,0,0,6,.7h18.9c4.1,0,6.9-.7,8.5-2s2.3-3.8,2.3-7.3v-1.2h5v2.1a23.74,23.74,0,0,1-.8,6.6,8.65,8.65,0,0,1-2.7,4,10.56,10.56,0,0,1-4.9,2.1,61.49,61.49,0,0,1-10.3.6l-13.9.2Zm41.7-.5V504.1h43.1V509H445.5v13.7h36.2v4.9H445.5V543h37.7v4.9H440.1Zm69.4.5a44,44,0,0,1-9.5-.7,11.52,11.52,0,0,1-5.1-2.4,10,10,0,0,1-3.1-4.8,25.16,25.16,0,0,1-1-8V504.1h5.6v28.3a21.62,21.62,0,0,0,.4,5.1,6.6,6.6,0,0,0,1.2,2.7,6.78,6.78,0,0,0,3.3,2.4,18.19,18.19,0,0,0,5.9.8h18a18.19,18.19,0,0,0,5.9-.8,6.78,6.78,0,0,0,3.3-2.4,11.07,11.07,0,0,0,1.2-2.7,29.65,29.65,0,0,0,.3-5.1V504.1h5.6v28a27,27,0,0,1-1,8.2,10.83,10.83,0,0,1-3,5,11.68,11.68,0,0,1-5,2.4,45.07,45.07,0,0,1-9.6.7l-13.4-.1Zm65.5-.5h-5.4V508.9H548V504h48.7v4.9H575v38.9Zm34.1,0h-5.4V504.1h5.4Zm29.2.5a46,46,0,0,1-9.8-.7,11.52,11.52,0,0,1-5.1-2.4,11.33,11.33,0,0,1-3.2-4.9,25.43,25.43,0,0,1-1-8.1V520.3a29.68,29.68,0,0,1,1-8.7,10.65,10.65,0,0,1,3.2-5.1,12.11,12.11,0,0,1,5.1-2.4,46.15,46.15,0,0,1,9.7-.7H652q10.65,0,14.4,2.7c2.5,1.8,3.8,5,3.8,9.7v2.3h-5v-.6c0-3.4-.8-5.8-2.2-7.1s-4.1-2-7.9-2H636.2a18.88,18.88,0,0,0-6,.7,7.06,7.06,0,0,0-3.4,2.4,6.86,6.86,0,0,0-1.2,2.9,33,33,0,0,0-.4,5.6v11.6a25,25,0,0,0,.4,5.6,6.86,6.86,0,0,0,1.2,2.9,6.62,6.62,0,0,0,3.4,2.4,18.88,18.88,0,0,0,6,.7H655c4.1,0,6.9-.7,8.5-2s2.3-3.8,2.3-7.3v-1.2h5v2.1a23.74,23.74,0,0,1-.8,6.6,8.65,8.65,0,0,1-2.7,4,10.56,10.56,0,0,1-4.9,2.1,61.49,61.49,0,0,1-10.3.6l-13.8.2Zm49.6-14.8h29.5l-14.9-25.1Zm-14.4,14.3,25.4-43.7h7.2l25.4,43.7h-5.8l-5.7-9.6H685.2l-5.6,9.6Zm63.3,0V504.1h5.4V543h34v4.8Zm45.3-14.3h5.2a3.44,3.44,0,0,1-.1.9c0,.8-.1,1.4-.1,1.7,0,2.7.9,4.7,2.7,5.7s5.2,1.6,10.1,1.6h11.4c5.9,0,9.8-.6,11.6-1.8s2.7-3.4,2.7-6.7c0-2.8-.6-4.7-1.9-5.7s-3.8-1.5-7.7-1.5H797.5q-8.7,0-12.3-2.7c-2.4-1.8-3.5-4.9-3.5-9.3s1.3-7.7,4-9.5,7.6-2.7,14.8-2.7h9.9a73.32,73.32,0,0,1,11.4.6,10.92,10.92,0,0,1,5.1,2.1,8,8,0,0,1,2.2,3.4,16.21,16.21,0,0,1,.7,5.3v1.3h-5.2v-.7c0-2.9-.7-4.8-2.1-5.8s-4.3-1.5-8.8-1.5H798.8c-4.6,0-7.6.5-9.2,1.6s-2.4,2.9-2.4,5.7.8,4.8,2.3,5.8,4.7,1.6,9.6,1.6h15.7a49.81,49.81,0,0,1,7.7.4,11.52,11.52,0,0,1,4.2,1.4,7.22,7.22,0,0,1,3.2,3.7,20.15,20.15,0,0,1,1,6.9q0,7.35-3.9,10.2c-2.6,1.9-7.3,2.9-14.1,2.9H798.1q-8.85,0-12.6-2.7c-2.5-1.8-3.8-4.7-3.8-8.8,0-.5,0-1.5.1-2.8C782.1,533.8,782.1,533.7,782.1,533.5ZM190.6,469.6c-11.4,0-19.8-.6-25.2-1.7s-9.9-3-13.3-5.8a25.29,25.29,0,0,1-8.3-12c-1.7-4.9-2.5-11.5-2.5-19.6v-29c0-8.9.8-15.9,2.5-21.1a25.61,25.61,0,0,1,8.1-12.3,31.1,31.1,0,0,1,13.4-5.7c5.6-1.1,13.9-1.7,25.1-1.7H226c11.2,0,19.6.6,25.1,1.7a31.1,31.1,0,0,1,13.4,5.7,24.54,24.54,0,0,1,8.1,12.1c1.7,5.2,2.6,11.9,2.6,20.1v29.6c0,8.3-.9,15-2.6,20.1a25,25,0,0,1-8.1,12.1,32.1,32.1,0,0,1-13.2,5.8c-5.4,1.1-13.8,1.7-25.3,1.7Zm41.7-97.2H184.2c-6.9,0-12.1.6-15.8,1.8a17.6,17.6,0,0,0-8.7,5.9,18.44,18.44,0,0,0-3.2,7.1c-.6,2.7-.9,7.3-.9,13.7v28c0,6.4.3,10.9.9,13.7a18.44,18.44,0,0,0,3.2,7.1,17,17,0,0,0,8.7,5.9c3.7,1.2,9,1.8,15.8,1.8h48.1q10.35,0,15.9-1.8a17.6,17.6,0,0,0,8.7-5.9,20.23,20.23,0,0,0,3.1-6.8,61.55,61.55,0,0,0,.9-12.3V399.4A61.34,61.34,0,0,0,260,387a18.46,18.46,0,0,0-3.1-6.8,17,17,0,0,0-8.7-5.9c-3.7-1.3-9-1.9-15.9-1.9Zm64.5,61.3h12.7c0,.5-.1,1.2-.1,2.1-.1,2-.1,3.5-.1,4.2,0,6.7,2.2,11.3,6.6,13.9s12.6,3.9,24.6,3.9h27.8c14.4,0,23.8-1.4,28.2-4.3s6.6-8.3,6.6-16.4c0-6.7-1.5-11.3-4.6-13.8s-9.3-3.8-18.8-3.8H334.8c-14.2,0-24.2-2.2-29.9-6.6s-8.6-12-8.6-22.7c0-10.9,3.3-18.6,9.8-23s18.5-6.6,36-6.6h24.2c13.2,0,22.4.5,27.7,1.5s9.4,2.7,12.4,5.2a19.36,19.36,0,0,1,5.4,8.3,39.05,39.05,0,0,1,1.8,12.8v3.1H400.9v-1.6c0-7-1.7-11.7-5-14.2s-10.5-3.7-21.3-3.7H338.3c-11.1,0-18.5,1.3-22.3,3.8s-5.8,7.2-5.8,13.9c0,6.9,1.9,11.6,5.6,14.1s11.5,3.9,23.3,3.9h38.2c8.3,0,14.6.3,18.8,1a29.18,29.18,0,0,1,10.1,3.3,17.17,17.17,0,0,1,7.8,9c1.5,3.9,2.3,9.5,2.3,16.8,0,11.8-3.2,20.1-9.5,24.7s-17.8,7-34.4,7H336.3c-14.3,0-24.5-2.1-30.5-6.5s-9.1-11.5-9.1-21.5c0-1.3.1-3.6.2-6.8a3.4,3.4,0,0,1-.1-1Zm154.8,34.6H438.4V362h13.2v45.8H548V362h13.2V468.4H548v-49H451.6Zm135.8,0V362H692.1v11.8H600.3v33.4h87.9V419H600.3v37.4h91.8v11.8H587.4Zm204.4-94.7h-67v40.8h67c9.5,0,15.8-1.2,19-3.5s4.7-7.1,4.7-14.3v-5.1c0-7.1-1.6-11.9-4.7-14.3s-9.5-3.6-19-3.6Zm-67,94.7H711.6V362h75.9q25.35,0,33.6,5.4c5.5,3.6,8.2,10.2,8.2,19.9v12.8c0,6.6-1.4,11.4-4.1,14.4s-7.6,5.3-14.6,6.8c5.8.6,10.2,2.7,13.1,6.2s4.4,8.3,4.4,14.5v26.4H815V444.7c0-6.9-1.5-11.7-4.5-14.2s-10.1-3.8-21.2-3.8H724.8v41.6Z"/><path class="cls-6" d="M24.1,573.7v-3.3a2.65,2.65,0,0,0-.8-2.2,5.92,5.92,0,0,0-3.3-.6H13v9h7a5.92,5.92,0,0,0,3.3-.6,2.7,2.7,0,0,0,.8-2.3Zm-13.5,14V565.1h9.5c2.5,0,4.3.4,5.2,1.1s1.4,2.1,1.4,4v3.4c0,2-.5,3.4-1.4,4.1s-2.7,1.1-5.2,1.1h-7v8.8l-2.5.1Zm53.8-16v16H62.1v-2.2a3.92,3.92,0,0,1-1.8,1.8,8.29,8.29,0,0,1-3.4.6c-2.1,0-3.5-.4-4.4-1.3s-1.3-2.3-1.3-4.4V571.7h2.3v10c0,1.7.2,2.8.7,3.3a4.19,4.19,0,0,0,2.9.8,5,5,0,0,0,3.6-1.1,4.87,4.87,0,0,0,1.1-3.6v-9.3h2.6Zm26.2,16v-16h2.3v2.2a3.53,3.53,0,0,1,1.6-1.8,5.55,5.55,0,0,1,2.8-.6c1.7,0,3,.4,3.7,1.3s1.1,2.3,1.1,4.5v.1H99.7v-.5a4.12,4.12,0,0,0-.6-2.6,4.12,4.12,0,0,0-5.1.4,5.9,5.9,0,0,0-.9,3.7v9.3Zm37.6-9.5h9v-.6a4.81,4.81,0,0,0-.8-3.1,4.75,4.75,0,0,0-3.2-.8h-1.1a4.44,4.44,0,0,0-3.1.8,4.62,4.62,0,0,0-.8,3.1v.6Zm4,9.7c-2.4,0-4-.5-5-1.4s-1.4-2.6-1.4-4.9v-3.8c0-2.3.5-4,1.4-4.9s2.6-1.4,5-1.4h1.1c2.4,0,4,.5,5,1.4s1.4,2.6,1.4,4.9v2.4H128.2v1.3a5.08,5.08,0,0,0,.8,3.3c.5.6,1.6.8,3.2.8h1.1a5.62,5.62,0,0,0,3-.6,2.65,2.65,0,0,0,1-2.1h2.5a4.67,4.67,0,0,1-1.7,3.7,7.56,7.56,0,0,1-4.7,1.2l-1.2.1Z"/><path class="cls-6" d="M206.6,572.6q0-4.35,1.8-6c1.2-1.1,3.3-1.7,6.3-1.7h2.9c2.8,0,4.8.5,6.1,1.4a5,5,0,0,1,2,4.4v1h-2.6v-.3a4,4,0,0,0-1.2-3.3q-1.2-.9-4.5-.9h-2a12.58,12.58,0,0,0-3.3.3,3.93,3.93,0,0,0-1.7.9,3.77,3.77,0,0,0-.9,1.5,13,13,0,0,0-.3,3.4v6.4a13.49,13.49,0,0,0,.3,3.4,3.77,3.77,0,0,0,.9,1.5,4.61,4.61,0,0,0,1.7.9,13.49,13.49,0,0,0,3.4.3h2a19,19,0,0,0,3-.2,3.61,3.61,0,0,0,1.5-.8,2.84,2.84,0,0,0,.9-1.4,12,12,0,0,0,.2-3.1v-1.4h-6.3v-2.3h8.8v3.8q0,4.35-1.8,6c-1.2,1.1-3.3,1.7-6.3,1.7h-2.9c-3,0-5.1-.6-6.3-1.7s-1.8-3.2-1.8-6l.1-7.8Zm46.5,5.6h9v-.6a4.81,4.81,0,0,0-.8-3.1,4.75,4.75,0,0,0-3.2-.8H257a4.44,4.44,0,0,0-3.1.8,4.62,4.62,0,0,0-.8,3.1v.6Zm4,9.7c-2.4,0-4-.5-5-1.4s-1.4-2.6-1.4-4.9v-3.8c0-2.3.5-4,1.4-4.9s2.6-1.4,5-1.4h1.1c2.4,0,4,.5,5,1.4s1.4,2.6,1.4,4.9v2.4H253.1v1.3a5.08,5.08,0,0,0,.8,3.3c.5.6,1.6.8,3.2.8h1.1a5.62,5.62,0,0,0,3-.6,2.65,2.65,0,0,0,1-2.1h2.5a4.67,4.67,0,0,1-1.7,3.7,7.56,7.56,0,0,1-4.7,1.2l-1.2.1Zm33.1-.2v-16h2.3v2.2a3.72,3.72,0,0,1,1.9-1.8,8,8,0,0,1,3.4-.6c2.1,0,3.6.4,4.4,1.3s1.3,2.3,1.3,4.5v10.5h-2.4v-10c0-1.7-.2-2.8-.7-3.3a4,4,0,0,0-2.9-.8,5.45,5.45,0,0,0-3.7,1.1,4.89,4.89,0,0,0-1.2,3.6v9.3Zm52.2-16v16h-2.3v-2.2a3.92,3.92,0,0,1-1.8,1.8,8.29,8.29,0,0,1-3.4.6c-2.1,0-3.5-.4-4.4-1.3s-1.3-2.3-1.3-4.4V571.7h2.3v10c0,1.7.2,2.8.7,3.3a4.19,4.19,0,0,0,2.9.8,5,5,0,0,0,3.6-1.1,4.87,4.87,0,0,0,1.1-3.6v-9.3h2.6Zm26.2-3.9v-2.7h2.3v2.7Zm0,19.9v-16h2.3v16Zm28.6,0v-16h2.3v2.2a3.72,3.72,0,0,1,1.9-1.8,8,8,0,0,1,3.4-.6c2.1,0,3.6.4,4.4,1.3s1.3,2.3,1.3,4.5v10.5h-2.4v-10c0-1.7-.2-2.8-.7-3.3a4,4,0,0,0-2.9-.8,5.45,5.45,0,0,0-3.7,1.1,4.89,4.89,0,0,0-1.2,3.6v9.3Zm41-9.5h9v-.6a4.81,4.81,0,0,0-.8-3.1,4.75,4.75,0,0,0-3.2-.8h-1.1a4.44,4.44,0,0,0-3.1.8,4.62,4.62,0,0,0-.8,3.1v.6Zm3.9,9.7c-2.4,0-4-.5-5-1.4s-1.4-2.6-1.4-4.9v-3.8c0-2.3.5-4,1.4-4.9s2.6-1.4,5-1.4h1.1c2.4,0,4,.5,5,1.4s1.4,2.6,1.4,4.9v2.4H438.1v1.3a5.08,5.08,0,0,0,.8,3.3c.5.6,1.6.8,3.2.8h1.1a5.62,5.62,0,0,0,3-.6,2.65,2.65,0,0,0,1-2.1h2.5a4.67,4.67,0,0,1-1.7,3.7,7.56,7.56,0,0,1-4.7,1.2l-1.2.1Zm78.4-8.2h9.8l-4.5-12.2H525l-4.5,12.2Zm-5.5,8,8.3-22.6h4.1l8.4,22.6h-2.6l-2.2-5.8H519.6l-2.1,5.8Zm57.9-16v16h-2.3v-2.2a3.92,3.92,0,0,1-1.8,1.8,8.29,8.29,0,0,1-3.4.6c-2.1,0-3.5-.4-4.4-1.3s-1.3-2.3-1.3-4.4V571.7H562v10c0,1.7.2,2.8.7,3.3a4.19,4.19,0,0,0,2.9.8,5,5,0,0,0,3.6-1.1,4.87,4.87,0,0,0,1.1-3.6v-9.3h2.6Zm24.6,2.1v-2h2v-3.6h2.4v3.6h7.8v2h-7.8v8.8a4.12,4.12,0,0,0,.6,2.6,4.13,4.13,0,0,0,4.6,0,3.93,3.93,0,0,0,.6-2.6v-.5h2.4v.1c0,2.2-.4,3.8-1.1,4.5s-2.3,1.2-4.6,1.2c-1.8,0-3.1-.4-3.8-1.2s-1.1-2.3-1.1-4.5v-8.5l-2,.1Zm38.3,13.9V565.1h2.3v8.8a3.72,3.72,0,0,1,1.9-1.8,8,8,0,0,1,3.4-.6c2.1,0,3.6.4,4.4,1.3s1.3,2.3,1.3,4.5v10.5h-2.4v-10c0-1.7-.2-2.8-.7-3.3a4,4,0,0,0-2.9-.8,5.45,5.45,0,0,0-3.7,1.1,4.89,4.89,0,0,0-1.2,3.6v9.3Zm41-9.5h9v-.6a4.81,4.81,0,0,0-.8-3.1,4.75,4.75,0,0,0-3.2-.8h-1.1a4.44,4.44,0,0,0-3.1.8,4.62,4.62,0,0,0-.8,3.1v.6Zm3.9,9.7c-2.4,0-4-.5-5-1.4s-1.4-2.6-1.4-4.9v-3.8c0-2.3.5-4,1.4-4.9s2.6-1.4,5-1.4h1.1c2.4,0,4,.5,5,1.4s1.4,2.6,1.4,4.9v2.4H676.7v1.3a5.08,5.08,0,0,0,.8,3.3c.5.6,1.6.8,3.2.8h1.1a5.62,5.62,0,0,0,3-.6,2.65,2.65,0,0,0,1-2.1h2.5a4.67,4.67,0,0,1-1.7,3.7,7.56,7.56,0,0,1-4.7,1.2l-1.2.1Zm33.1-.2v-16h2.3v2.2a3.72,3.72,0,0,1,1.9-1.8,8,8,0,0,1,3.4-.6c2.1,0,3.6.4,4.4,1.3s1.3,2.3,1.3,4.5v10.5h-2.4v-10c0-1.7-.2-2.8-.7-3.3a4,4,0,0,0-2.9-.8,5.45,5.45,0,0,0-3.7,1.1,4.89,4.89,0,0,0-1.2,3.6v9.3Zm37.6-13.9v-2h2v-3.6h2.4v3.6h7.8v2h-7.8v8.8a4.12,4.12,0,0,0,.6,2.6,4.13,4.13,0,0,0,4.6,0,3.93,3.93,0,0,0,.6-2.6v-.5H764v.1c0,2.2-.4,3.8-1.1,4.5s-2.3,1.2-4.6,1.2c-1.8,0-3.1-.4-3.8-1.2s-1.1-2.3-1.1-4.5v-8.5l-2,.1Zm38.2-6v-2.7h2.3v2.7Zm0,19.9v-16h2.3v16Zm34.4.2c-2.4,0-4-.5-5-1.4s-1.4-2.6-1.4-4.9v-3.8c0-2.3.5-4,1.4-4.9s2.6-1.4,5-1.4h1.1c2.2,0,3.9.4,4.9,1.3s1.5,2.3,1.6,4.3h-2.4c-.1-1.3-.3-2.2-.9-2.7s-1.6-.7-3.1-.7H824a4.75,4.75,0,0,0-3.2.8c-.5.5-.7,1.8-.7,3.9v2.7c0,2,.3,3.3.8,3.9a4.75,4.75,0,0,0,3.2.8h1.1a5,5,0,0,0,3.2-.8c.6-.5.8-1.5.8-2.9v-.3h2.4v.3q0,3.15-1.5,4.5c-1,.9-2.6,1.3-4.9,1.3Z"/><path class="cls-7" d="M171.6,582.1a3.6,3.6,0,1,1,3.6-3.6A3.59,3.59,0,0,1,171.6,582.1Z"/><path class="cls-7" d="M481,582.1a3.6,3.6,0,1,1,3.6-3.6A3.59,3.59,0,0,1,481,582.1Z"/></g></svg>